# MagicaVoxel @ Ephtracy

# group
o 

# material
mtllib Banana.mtl
usemtl palette

# normals
vn -1 0 0
vn 1 0 0
vn 0 0 1
vn 0 0 -1
vn 0 -1 0
vn 0 1 0

# texcoords
vt 0.0175781 0.5
vt 0.537109 0.5
vt 0.962891 0.5

# verts
v 1 2 -1.8
v 1 2 -2.6
v 1 2.1 -1.7
v 1 2.1 -1.8
v 1 2.1 -2.6
v 1 2.1 -2.7
v 1 2.2 -2.7
v 1 2.2 -2.8
v 1 2.3 -1.6
v 1 2.3 -1.7
v 1 2.3 -1.9
v 1 2.3 -2.3
v 1 2.3 -2.5
v 1 2.3 -2.6
v 1 2.4 -1.7
v 1 2.4 -1.8
v 1 2.4 -1.9
v 1 2.4 -2.3
v 1 2.4 -2.4
v 1 2.4 -2.5
v 1 2.4 -2.6
v 1 2.4 -2.7
v 1 2.5 -1.6
v 1 2.5 -1.8
v 1 2.5 -2.4
v 1 2.5 -2.5
v 1 2.6 -2.6
v 1 2.6 -2.7
v 1 2.7 -2.6
v 1 2.7 -2.8
v 1 2.8 -2.5
v 1 2.8 -2.6
v 1 2.8 -2.7
v 1 2.8 -2.8
v 1 2.9 -2.5
v 1 2.9 -2.7
v 1.3 2 -1.8
v 1.3 2 -2.6
v 1.3 2.1 -1.7
v 1.3 2.1 -1.8
v 1.3 2.1 -2.6
v 1.3 2.1 -2.7
v 1.3 2.2 -2.7
v 1.3 2.2 -2.8
v 1.3 2.3 -1.6
v 1.3 2.3 -1.7
v 1.3 2.3 -1.9
v 1.3 2.3 -2.3
v 1.3 2.3 -2.5
v 1.3 2.3 -2.6
v 1.3 2.4 -1.7
v 1.3 2.4 -1.8
v 1.3 2.4 -1.9
v 1.3 2.4 -2.3
v 1.3 2.4 -2.4
v 1.3 2.4 -2.5
v 1.3 2.4 -2.6
v 1.3 2.4 -2.7
v 1.3 2.5 -1.6
v 1.3 2.5 -1.8
v 1.3 2.5 -2.4
v 1.3 2.5 -2.5
v 1.3 2.6 -2.6
v 1.3 2.6 -2.7
v 1.3 2.7 -2.6
v 1.3 2.7 -2.8
v 1.3 2.8 -2.5
v 1.3 2.8 -2.6
v 1.3 2.8 -2.7
v 1.3 2.8 -2.8
v 1.3 2.9 -2.5
v 1.3 2.9 -2.7
v 1 2.3 -1.6
v 1 2.5 -1.6
v 1.3 2.3 -1.6
v 1.3 2.5 -1.6
v 1 2.1 -1.7
v 1 2.3 -1.7
v 1.3 2.1 -1.7
v 1.3 2.3 -1.7
v 1 2 -1.8
v 1 2.1 -1.8
v 1.3 2 -1.8
v 1.3 2.1 -1.8
v 1 2.3 -2.3
v 1 2.4 -2.3
v 1.3 2.3 -2.3
v 1.3 2.4 -2.3
v 1 2.4 -2.4
v 1 2.5 -2.4
v 1.3 2.4 -2.4
v 1.3 2.5 -2.4
v 1 2.5 -2.5
v 1 2.8 -2.5
v 1 2.9 -2.5
v 1.3 2.5 -2.5
v 1.3 2.8 -2.5
v 1.3 2.9 -2.5
v 1 2.4 -1.8
v 1 2.5 -1.8
v 1.3 2.4 -1.8
v 1.3 2.5 -1.8
v 1 2.3 -1.9
v 1 2.4 -1.9
v 1.3 2.3 -1.9
v 1.3 2.4 -1.9
v 1 2 -2.6
v 1 2.1 -2.6
v 1.3 2 -2.6
v 1.3 2.1 -2.6
v 1 2.1 -2.7
v 1 2.2 -2.7
v 1 2.8 -2.7
v 1 2.9 -2.7
v 1.3 2.1 -2.7
v 1.3 2.2 -2.7
v 1.3 2.8 -2.7
v 1.3 2.9 -2.7
v 1 2.2 -2.8
v 1 2.7 -2.8
v 1 2.8 -2.8
v 1.3 2.2 -2.8
v 1.3 2.7 -2.8
v 1.3 2.8 -2.8
v 1 2 -1.8
v 1.3 2 -1.8
v 1 2 -2.6
v 1.3 2 -2.6
v 1 2.1 -1.7
v 1.3 2.1 -1.7
v 1 2.1 -1.8
v 1.3 2.1 -1.8
v 1 2.1 -2.6
v 1.3 2.1 -2.6
v 1 2.1 -2.7
v 1.3 2.1 -2.7
v 1 2.2 -2.7
v 1.3 2.2 -2.7
v 1 2.2 -2.8
v 1.3 2.2 -2.8
v 1 2.3 -1.6
v 1.3 2.3 -1.6
v 1 2.3 -1.7
v 1.3 2.3 -1.7
v 1 2.3 -1.9
v 1.3 2.3 -1.9
v 1 2.3 -2.3
v 1.3 2.3 -2.3
v 1 2.4 -1.8
v 1.3 2.4 -1.8
v 1 2.4 -1.9
v 1.3 2.4 -1.9
v 1 2.4 -2.3
v 1.3 2.4 -2.3
v 1 2.4 -2.4
v 1.3 2.4 -2.4
v 1 2.5 -1.6
v 1.3 2.5 -1.6
v 1 2.5 -1.8
v 1.3 2.5 -1.8
v 1 2.5 -2.4
v 1.3 2.5 -2.4
v 1 2.5 -2.5
v 1.3 2.5 -2.5
v 1 2.8 -2.7
v 1.3 2.8 -2.7
v 1 2.8 -2.8
v 1.3 2.8 -2.8
v 1 2.9 -2.5
v 1.3 2.9 -2.5
v 1 2.9 -2.7
v 1.3 2.9 -2.7

# faces
f 4/1/1 2/1/1 1/1/1
f 5/1/1 2/1/1 4/1/1
f 7/1/1 4/1/1 3/1/1
f 7/1/1 6/1/1 5/1/1
f 7/1/1 5/1/1 4/1/1
f 10/1/1 7/1/1 3/1/1
f 10/1/1 8/1/1 7/1/1
f 11/1/1 8/1/1 10/1/1
f 12/1/1 8/1/1 11/1/1
f 13/1/1 8/1/1 12/1/1
f 14/1/1 8/1/1 13/1/1
f 15/2/1 10/2/1 9/2/1
f 15/1/1 11/1/1 10/1/1
f 16/1/1 11/1/1 15/1/1
f 17/1/1 11/1/1 16/1/1
f 18/1/1 13/1/1 12/1/1
f 19/1/1 13/1/1 18/1/1
f 20/3/1 14/3/1 13/3/1
f 20/1/1 13/1/1 19/1/1
f 21/1/1 8/1/1 14/1/1
f 21/3/1 14/3/1 20/3/1
f 22/1/1 8/1/1 21/1/1
f 23/2/1 15/2/1 9/2/1
f 23/2/1 16/2/1 15/2/1
f 24/2/1 16/2/1 23/2/1
f 25/1/1 20/1/1 19/1/1
f 25/1/1 21/1/1 20/1/1
f 26/1/1 21/1/1 25/1/1
f 27/1/1 21/1/1 26/1/1
f 27/3/1 22/3/1 21/3/1
f 28/1/1 8/1/1 22/1/1
f 28/3/1 22/3/1 27/3/1
f 29/1/1 27/1/1 26/1/1
f 29/1/1 28/1/1 27/1/1
f 30/1/1 8/1/1 28/1/1
f 30/1/1 28/1/1 29/1/1
f 31/1/1 29/1/1 26/1/1
f 32/2/1 30/2/1 29/2/1
f 32/1/1 29/1/1 31/1/1
f 33/2/1 30/2/1 32/2/1
f 34/2/1 30/2/1 33/2/1
f 35/2/1 32/2/1 31/2/1
f 35/2/1 33/2/1 32/2/1
f 36/2/1 33/2/1 35/2/1
f 37/1/2 38/1/2 40/1/2
f 40/1/2 38/1/2 41/1/2
f 39/1/2 40/1/2 43/1/2
f 41/1/2 42/1/2 43/1/2
f 40/1/2 41/1/2 43/1/2
f 39/1/2 43/1/2 46/1/2
f 43/1/2 44/1/2 46/1/2
f 46/1/2 44/1/2 47/1/2
f 47/1/2 44/1/2 48/1/2
f 48/1/2 44/1/2 49/1/2
f 49/1/2 44/1/2 50/1/2
f 45/2/2 46/2/2 51/2/2
f 46/1/2 47/1/2 51/1/2
f 51/1/2 47/1/2 52/1/2
f 52/1/2 47/1/2 53/1/2
f 48/1/2 49/1/2 54/1/2
f 54/1/2 49/1/2 55/1/2
f 49/3/2 50/3/2 56/3/2
f 55/1/2 49/1/2 56/1/2
f 50/1/2 44/1/2 57/1/2
f 56/3/2 50/3/2 57/3/2
f 57/1/2 44/1/2 58/1/2
f 45/2/2 51/2/2 59/2/2
f 51/2/2 52/2/2 59/2/2
f 59/2/2 52/2/2 60/2/2
f 55/1/2 56/1/2 61/1/2
f 56/1/2 57/1/2 61/1/2
f 61/1/2 57/1/2 62/1/2
f 62/1/2 57/1/2 63/1/2
f 57/3/2 58/3/2 63/3/2
f 58/1/2 44/1/2 64/1/2
f 63/3/2 58/3/2 64/3/2
f 62/1/2 63/1/2 65/1/2
f 63/1/2 64/1/2 65/1/2
f 64/1/2 44/1/2 66/1/2
f 65/1/2 64/1/2 66/1/2
f 62/1/2 65/1/2 67/1/2
f 65/2/2 66/2/2 68/2/2
f 67/1/2 65/1/2 68/1/2
f 68/2/2 66/2/2 69/2/2
f 69/2/2 66/2/2 70/2/2
f 67/2/2 68/2/2 71/2/2
f 68/2/2 69/2/2 71/2/2
f 71/2/2 69/2/2 72/2/2
f 75/2/3 74/2/3 73/2/3
f 76/2/3 74/2/3 75/2/3
f 79/1/3 78/1/3 77/1/3
f 80/1/3 78/1/3 79/1/3
f 83/1/3 82/1/3 81/1/3
f 84/1/3 82/1/3 83/1/3
f 87/1/3 86/1/3 85/1/3
f 88/1/3 86/1/3 87/1/3
f 91/1/3 90/1/3 89/1/3
f 92/1/3 90/1/3 91/1/3
f 96/1/3 94/1/3 93/1/3
f 97/2/3 95/2/3 94/2/3
f 97/1/3 94/1/3 96/1/3
f 98/2/3 95/2/3 97/2/3
f 99/2/4 100/2/4 101/2/4
f 101/2/4 100/2/4 102/2/4
f 103/1/4 104/1/4 105/1/4
f 105/1/4 104/1/4 106/1/4
f 107/1/4 108/1/4 109/1/4
f 109/1/4 108/1/4 110/1/4
f 111/1/4 112/1/4 115/1/4
f 115/1/4 112/1/4 116/1/4
f 113/2/4 114/2/4 117/2/4
f 117/2/4 114/2/4 118/2/4
f 119/1/4 120/1/4 122/1/4
f 120/2/4 121/2/4 123/2/4
f 122/1/4 120/1/4 123/1/4
f 123/2/4 121/2/4 124/2/4
f 127/1/5 126/1/5 125/1/5
f 128/1/5 126/1/5 127/1/5
f 131/1/5 130/1/5 129/1/5
f 132/1/5 130/1/5 131/1/5
f 135/1/5 134/1/5 133/1/5
f 136/1/5 134/1/5 135/1/5
f 139/1/5 138/1/5 137/1/5
f 140/1/5 138/1/5 139/1/5
f 143/2/5 142/2/5 141/2/5
f 144/2/5 142/2/5 143/2/5
f 145/1/6 146/1/6 147/1/6
f 147/1/6 146/1/6 148/1/6
f 149/1/6 150/1/6 151/1/6
f 151/1/6 150/1/6 152/1/6
f 153/1/6 154/1/6 155/1/6
f 155/1/6 154/1/6 156/1/6
f 157/2/6 158/2/6 159/2/6
f 159/2/6 158/2/6 160/2/6
f 161/1/6 162/1/6 163/1/6
f 163/1/6 162/1/6 164/1/6
f 165/2/6 166/2/6 167/2/6
f 167/2/6 166/2/6 168/2/6
f 169/2/6 170/2/6 171/2/6
f 171/2/6 170/2/6 172/2/6
