# Blender v2.80 (sub 72) OBJ File: ''
# www.blender.org
mtllib BevelCube.mtl
o Cube_Cube.005
v -1.000000 -1.000000 1.000000
v -1.000000 -1.000000 -1.000000
v 1.000000 -1.000000 1.000000
v 1.000000 -1.000000 -1.000000
v -0.481987 1.000000 0.481987
v -1.000000 0.481987 1.000000
v -0.481987 1.000000 -0.481987
v -1.000000 0.481987 -1.000000
v 0.481987 1.000000 0.481987
v 1.000000 0.481987 1.000000
v 0.481987 1.000000 -0.481987
v 1.000000 0.481987 -1.000000
vt 0.560248 0.000000
vt 0.560248 0.250000
vt 0.375000 0.250000
vt 0.375000 0.000000
vt 0.560248 0.500000
vt 0.560248 0.750000
vt 0.375000 0.750000
vt 0.375000 0.500000
vt 0.810248 0.564752
vt 0.810248 0.685248
vt 0.689752 0.685248
vt 0.689752 0.564752
vt 0.125000 0.750000
vt 0.125000 0.500000
vt 0.625000 0.500000
vt 0.875000 0.500000
vt 0.875000 0.750000
vt 0.625000 0.750000
vt 0.560248 1.000000
vt 0.375000 1.000000
vn -1.0000 0.0000 0.0000
vn 1.0000 0.0000 0.0000
vn 0.0000 0.0000 -1.0000
vn 0.0000 1.0000 0.0000
vn 0.0000 -1.0000 0.0000
vn 0.0000 0.7071 -0.7071
vn 0.0000 0.7071 0.7071
vn -0.7071 0.7071 0.0000
vn 0.7071 0.7071 0.0000
vn 0.0000 0.0000 1.0000
usemtl Material.005
s off
f 6/1/1 8/2/1 2/3/1 1/4/1
f 12/5/2 10/6/2 3/7/2 4/8/2
f 2/3/3 8/2/3 12/5/3 4/8/3
f 7/9/4 5/10/4 9/11/4 11/12/4
f 4/8/5 3/7/5 1/13/5 2/14/5
f 7/9/6 11/12/6 12/15/6 8/16/6
f 9/11/7 5/10/7 6/17/7 10/18/7
f 5/10/8 7/9/8 8/16/8 6/17/8
f 11/12/9 9/11/9 10/6/9 12/5/9
f 3/7/10 10/6/10 6/19/10 1/20/10
